<svg width="24" height="24" viewBox="0 0 24 24" fill="none" xmlns="http://www.w3.org/2000/svg">
<path d="M6.36011 18.78L6.61011 21L8.23011 19.46L11.0001 11.86C10.3201 11.69 9.72011 11.35 9.23011 10.88L6.36011 18.78Z" fill="#323232"/>
<path d="M14.7701 10.88C14.2801 11.35 13.6701 11.69 13.0001 11.86L15.7701 19.46L17.3901 21L17.6501 18.78L14.7701 10.88Z" fill="#323232"/>
<path d="M15.0001 8C15.0001 6.7 14.1601 5.6 13.0001 5.18V3H11.0001V5.18C9.84011 5.6 9.00011 6.7 9.00011 8C9.00011 9.66 10.3401 11 12.0001 11C13.6601 11 15.0001 9.66 15.0001 8ZM12.0001 9C11.4501 9 11.0001 8.55 11.0001 8C11.0001 7.45 11.4501 7 12.0001 7C12.5501 7 13.0001 7.45 13.0001 8C13.0001 8.55 12.5501 9 12.0001 9Z" fill="#323232"/>
</svg>
