<svg width="24" height="24" viewBox="0 0 24 24" fill="none" xmlns="http://www.w3.org/2000/svg">
<path d="M21.7099 11.2901L12.7099 2.29006C12.3199 1.90006 11.6899 1.90006 11.2999 2.29006L8.20989 5.38006L9.61989 6.79006L11.9999 4.42006L19.5799 12.0001L17.1999 14.3801L18.6099 15.7901L21.6999 12.7001C22.0999 12.3301 22.0999 11.7001 21.7099 11.2901Z" fill="#323232"/>
<path d="M12.9999 7.50006V10.1701L15.1699 12.3401L16.4999 11.0001L12.9999 7.50006Z" fill="#323232"/>
<path d="M1.38989 4.22006L5.37989 8.21006L2.28989 11.3001C1.89989 11.6901 1.89989 12.3201 2.28989 12.7101L11.2899 21.7101C11.6799 22.1001 12.3099 22.1001 12.6999 21.7101L15.7899 18.6201L19.7799 22.6101L21.1899 21.2001L2.80989 2.81006L1.38989 4.22006ZM8.02989 10.8501C8.01989 10.9001 7.98989 10.9501 7.98989 11.0001V15.0001H9.98989V12.8201L14.3699 17.2001L11.9999 19.5801L4.41989 12.0001L6.79989 9.62006L8.02989 10.8501Z" fill="#323232"/>
</svg>
