<svg width="24" height="24" viewBox="0 0 24 24" fill="none" xmlns="http://www.w3.org/2000/svg">
<path d="M18 4H16V11.9L18 9.9V4Z" fill="#323232"/>
<path d="M6 4H4V20H6V4Z" fill="#323232"/>
<path d="M12 4H10V8H12V4Z" fill="#323232"/>
<path d="M12 10H10V14H12V10Z" fill="#323232"/>
<path d="M12 16H10V20H12V16Z" fill="#323232"/>
<path d="M22.56 12.59L21.41 11.44C20.82 10.85 19.87 10.85 19.29 11.44L14 16.73V20H17.27L22.56 14.71C23.15 14.12 23.15 13.17 22.56 12.59ZM16.58 18.45H15.55V17.42L19 13.97L20.03 15L16.58 18.45Z" fill="#323232"/>
</svg>
