<svg width="24" height="24" viewBox="0 0 24 24" fill="none" xmlns="http://www.w3.org/2000/svg">
<path d="M7.81994 16H14.9999V15C14.9999 12.79 16.7899 11 18.9999 11H19.7399L17.8399 2.56C17.6299 1.65 16.8199 1 15.8899 1H11.9999V3H15.8899L17.2899 9.25H17.2799C15.1199 9.9 13.4699 11.73 13.0899 14H7.81994C7.33994 12.66 5.95994 11.76 4.39994 12.06C3.21994 12.29 2.26994 13.26 2.04994 14.44C1.69994 16.34 3.15994 18 4.99994 18C6.29994 18 7.39994 17.16 7.81994 16ZM4.99994 16C4.44994 16 3.99994 15.55 3.99994 15C3.99994 14.45 4.44994 14 4.99994 14C5.54994 14 5.99994 14.45 5.99994 15C5.99994 15.55 5.54994 16 4.99994 16Z" fill="#323232"/>
<path d="M18.9999 12C17.3399 12 15.9999 13.34 15.9999 15C15.9999 16.66 17.3399 18 18.9999 18C20.6599 18 21.9999 16.66 21.9999 15C21.9999 13.34 20.6599 12 18.9999 12ZM18.9999 16C18.4499 16 17.9999 15.55 17.9999 15C17.9999 14.45 18.4499 14 18.9999 14C19.5499 14 19.9999 14.45 19.9999 15C19.9999 15.55 19.5499 16 18.9999 16Z" fill="#323232"/>
<path d="M10.9999 20H6.99994L12.9999 23V21H16.9999L10.9999 18V20Z" fill="#323232"/>
</svg>
