<svg width="24" height="24" viewBox="0 0 24 24" fill="none" xmlns="http://www.w3.org/2000/svg">
<path d="M10.9999 2H2.99986V4H10.9999V2Z" fill="#323232"/>
<path d="M5.99986 11H7.99986V7H10.9999V5H2.99986V7H5.99986V11Z" fill="#323232"/>
<path d="M20.1816 12.4038L12.4035 20.1819L13.8177 21.5961L21.5958 13.818L20.1816 12.4038Z" fill="#323232"/>
<path d="M14.4999 16C15.3283 16 15.9999 15.3284 15.9999 14.5C15.9999 13.6716 15.3283 13 14.4999 13C13.6714 13 12.9999 13.6716 12.9999 14.5C12.9999 15.3284 13.6714 16 14.4999 16Z" fill="#323232"/>
<path d="M19.4999 21C20.3283 21 20.9999 20.3284 20.9999 19.5C20.9999 18.6716 20.3283 18 19.4999 18C18.6714 18 17.9999 18.6716 17.9999 19.5C17.9999 20.3284 18.6714 21 19.4999 21Z" fill="#323232"/>
<path d="M15.4999 11C16.8799 11 17.9999 9.88 17.9999 8.5V4H20.9999V2H16.9999V6.51C16.5799 6.19 16.0699 6 15.4999 6C14.1199 6 12.9999 7.12 12.9999 8.5C12.9999 9.88 14.1199 11 15.4999 11Z" fill="#323232"/>
<path d="M9.73986 15.96L8.32986 17.37L7.61986 16.66L7.96986 16.31C8.94986 15.33 8.94986 13.75 7.96986 12.77C7.47986 12.28 6.83986 12.04 6.19986 12.04C5.55986 12.04 4.91986 12.28 4.42986 12.77C3.44986 13.75 3.44986 15.33 4.42986 16.31L4.77986 16.66L3.71986 17.72C2.73986 18.7 2.73986 20.28 3.71986 21.26C4.21986 21.76 4.85986 22 5.49986 22C6.13986 22 6.77986 21.76 7.26986 21.27L8.32986 20.21L9.73986 21.62L11.1499 20.21L9.73986 18.8L11.1499 17.39L9.73986 15.96ZM5.84986 14.2C5.96986 14.08 6.10986 14.05 6.19986 14.05C6.28986 14.05 6.42986 14.08 6.54986 14.2C6.73986 14.4 6.73986 14.71 6.54986 14.91L6.19986 15.26L5.84986 14.9C5.65986 14.71 5.65986 14.39 5.84986 14.2ZM5.84986 19.85C5.72986 19.97 5.58986 20 5.49986 20C5.40986 20 5.26986 19.97 5.14986 19.85C4.95986 19.66 4.95986 19.34 5.14986 19.14L6.20986 18.08L6.91986 18.79L5.84986 19.85Z" fill="#323232"/>
</svg>
