<svg width="24" height="24" viewBox="0 0 24 24" fill="none" xmlns="http://www.w3.org/2000/svg">
<path d="M19.78 17.5098C17.31 17.5098 13.21 16.1798 11.1 12.0798C8.77 7.56977 10.6 3.59977 11.63 2.00977C6.27 2.19977 1.98 6.58977 1.98 11.9998C1.98 12.1398 2 12.2798 2 12.4198C2.61 12.1598 3.28 11.9998 3.98 11.9998C3.98 8.90977 5.71 6.22977 8.28 4.89977C7.78 7.08977 7.74 9.93977 9.32 12.9998C10.89 16.0398 13.5 17.9498 16.12 18.8598C14.89 19.5998 13.47 20.0098 11.99 20.0098C11.49 20.0098 10.99 19.9598 10.51 19.8698C10.14 20.5698 9.57 21.1398 8.87 21.5098C9.85 21.8298 10.9 22.0098 11.98 22.0098C15.48 22.0098 18.56 20.2098 20.35 17.4898C20.18 17.4998 19.98 17.5098 19.78 17.5098Z" fill="#323232"/>
<path d="M7 15.9998H6.82C6.4 14.8398 5.3 13.9998 4 13.9998C2.34 13.9998 1 15.3398 1 16.9998C1 18.6598 2.34 19.9998 4 19.9998C4.62 19.9998 6.49 19.9998 7 19.9998C8.1 19.9998 9 19.0998 9 17.9998C9 16.8998 8.1 15.9998 7 15.9998Z" fill="#323232"/>
</svg>
