<svg width="24" height="24" viewBox="0 0 24 24" fill="none" xmlns="http://www.w3.org/2000/svg">
<path d="M8.89993 6.0701L7.47993 4.6601L8.99993 3.0001H14.9999L16.8299 5.0001H19.9999C21.0999 5.0001 21.9999 5.9001 21.9999 7.0001V19.0001C21.9999 19.0501 21.9899 19.1001 21.9799 19.1601L19.9999 17.1701V7.0001H15.9499L14.1199 5.0001H9.87993L8.89993 6.0701ZM20.4899 23.3101L18.1699 21.0001H3.99993C2.89993 21.0001 1.99993 20.1001 1.99993 19.0001V7.0001C1.99993 6.4101 2.26993 5.8801 2.67993 5.5101L0.679932 3.5101L2.09993 2.1001L21.8999 21.9001L20.4899 23.3101ZM9.18993 12.0201C9.07993 12.3301 8.99993 12.6501 8.99993 13.0001C8.99993 14.6601 10.3399 16.0001 11.9999 16.0001C12.3499 16.0001 12.6699 15.9201 12.9799 15.8101L9.18993 12.0201ZM16.1699 19.0001L14.4899 17.3201C13.7599 17.7501 12.9099 18.0001 11.9999 18.0001C9.23993 18.0001 6.99993 15.7601 6.99993 13.0001C6.99993 12.0901 7.24993 11.2401 7.67993 10.5101L4.16993 7.0001H3.99993V19.0001H16.1699ZM14.8099 11.9801L16.8799 14.0501C16.9599 13.7101 16.9999 13.3601 16.9999 13.0001C16.9999 10.2401 14.7599 8.0001 11.9999 8.0001C11.6399 8.0001 11.2899 8.0401 10.9399 8.1201L13.0099 10.1901C13.8499 10.4901 14.5099 11.1501 14.8099 11.9801Z" fill="#323232"/>
</svg>
