<svg width="24" height="24" viewBox="0 0 24 24" fill="none" xmlns="http://www.w3.org/2000/svg">
<path d="M7.99989 20.0001C7.99989 21.1001 7.09989 22.0001 5.99989 22.0001C4.89989 22.0001 3.99989 21.1001 3.99989 20.0001C3.99989 18.9001 4.89989 18.0001 5.99989 18.0001C7.09989 18.0001 7.99989 18.9001 7.99989 20.0001ZM14.9999 8.66006V12.1701L16.9999 14.1701V6.27006C17.5799 5.59006 17.9699 5.00006 18.6499 5.00006C19.4199 5.00006 19.9999 5.66006 19.9999 6.48006V7.00006H21.9999V6.48006C21.9999 4.56006 20.5199 3.00006 18.6499 3.00006C16.9899 3.00006 16.1099 4.27006 15.4699 5.03006L11.9699 9.14006L13.3899 10.5601L14.9999 8.66006ZM19.7799 22.6101L17.8699 20.7001C17.5799 21.4601 16.8599 22.0001 15.9999 22.0001C14.8999 22.0001 13.9999 21.1001 13.9999 20.0001C13.9999 19.1401 14.5399 18.4201 15.2999 18.1301L14.1699 17.0001H7.42989C6.57989 17.0001 6.11989 16.0001 6.66989 15.3501L9.35989 12.1901L1.38989 4.22006L2.79989 2.81006L10.6599 10.6701L12.0799 12.0901L21.1899 21.2001L19.7799 22.6101ZM12.1699 15.0001L10.7799 13.6101L9.59989 15.0001H12.1699ZM9.99989 5.00006C10.2899 5.00006 10.5799 5.02006 10.8599 5.05006L9.48989 6.67006L10.9099 8.09006L14.2999 4.10006C13.0299 3.40006 11.5599 3.00006 9.99989 3.00006C8.76989 3.00006 7.59989 3.25006 6.52989 3.70006L8.09989 5.27006C8.70989 5.10006 9.34989 5.00006 9.99989 5.00006Z" fill="#323232"/>
</svg>
