<svg width="24" height="24" viewBox="0 0 24 24" fill="none" xmlns="http://www.w3.org/2000/svg">
<path d="M17.3399 14.5401L15.9099 13.1101C16.4699 12.3801 16.9599 11.6101 17.3799 10.7901L15.1799 8.59006C14.8999 8.31006 14.8199 7.92006 14.9299 7.57006C15.2999 6.45006 15.4999 5.25006 15.4999 4.00006C15.4999 3.45006 15.9499 3.00006 16.4999 3.00006H19.9999C20.5499 3.00006 20.9999 3.45006 20.9999 4.00006C20.9999 7.98006 19.6299 11.6401 17.3399 14.5401ZM14.5199 17.3501C11.6299 19.6401 7.96989 21.0001 3.99989 21.0001C3.44989 21.0001 2.99989 20.5501 2.99989 20.0001V16.5101C2.99989 15.9601 3.44989 15.5101 3.99989 15.5101C5.23989 15.5101 6.44989 15.3101 7.56989 14.9401C7.66989 14.9001 7.77989 14.8901 7.87989 14.8901C8.13989 14.8901 8.38989 14.9901 8.58989 15.1801L10.7899 17.3801C11.5999 16.9601 12.3699 16.4801 13.0899 15.9201L1.38989 4.22006L2.80989 2.81006L21.1899 21.2001L19.7799 22.6101L14.5199 17.3501ZM7.59989 17.0201C6.74989 17.2601 5.87989 17.4101 4.99989 17.4701V18.9601C6.31989 18.8701 7.58989 18.6101 8.79989 18.2101L7.59989 17.0201ZM17.4599 5.00006C17.3999 5.89006 17.2499 6.76006 17.0099 7.59006L18.2099 8.79006C18.6199 7.59006 18.8799 6.32006 18.9699 5.00006H17.4599V5.00006Z" fill="#323232"/>
</svg>
