<svg width="24" height="24" viewBox="0 0 24 24" fill="none" xmlns="http://www.w3.org/2000/svg">
<path d="M19.28 4.9301L17.16 2.8101C16.38 2.0301 15.11 2.0301 14.33 2.8101L11.5 5.6401L13.62 7.7601L15.74 5.6401L19.28 9.1801C20.45 8.0001 20.45 6.1001 19.28 4.9301Z" fill="#323232"/>
<path d="M5.48997 13.7701C6.07997 14.3601 7.02997 14.3601 7.60997 13.7701L10.08 11.3001L7.95997 9.1701L5.48997 11.6401C4.89997 12.2301 4.89997 13.1801 5.48997 13.7701Z" fill="#323232"/>
<path d="M15.04 7.7601L13.62 9.1801L10.44 6.0001C9.84997 5.4001 8.89997 5.4001 8.31997 5.9901C7.72997 6.5801 7.72997 7.5301 8.31997 8.1101L11.5 11.2901L4.42997 18.3601C3.64997 19.1401 3.64997 20.4101 4.42997 21.1901C5.20997 21.9701 6.47997 21.9701 7.25997 21.1901L16.45 12.0001C16.84 12.3901 17.47 12.3901 17.86 12.0001C18.25 11.6101 18.25 10.9801 17.86 10.5901L15.04 7.7601Z" fill="#323232"/>
</svg>
