<svg width="24" height="24" viewBox="0 0 24 24" fill="none" xmlns="http://www.w3.org/2000/svg">
<path d="M9.1 5.00008H14.9L19 9.10008V14.9001L18.78 15.1201L20.2 16.5301L21 15.7301V8.27008L15.73 3.00008H8.27L7.47 3.80008L8.88 5.22008L9.1 5.00008Z" fill="#323232"/>
<path d="M12 17.0001C12.5523 17.0001 13 16.5524 13 16.0001C13 15.4478 12.5523 15.0001 12 15.0001C11.4477 15.0001 11 15.4478 11 16.0001C11 16.5524 11.4477 17.0001 12 17.0001Z" fill="#323232"/>
<path d="M13 9.33008V7.00008H11V7.33008L13 9.33008ZM2.41 1.58008L1 2.99008L4.64 6.63008L3 8.27008V15.7301L8.27 21.0001H15.73L17.37 19.3601L21.01 23.0001L22.42 21.5901L2.41 1.58008ZM14.9 19.0001H9.1L5 14.9001V9.10008L6.05 8.05008L15.95 17.9501L14.9 19.0001Z" fill="#323232"/>
</svg>
