<svg width="24" height="24" viewBox="0 0 24 24" fill="none" xmlns="http://www.w3.org/2000/svg">
<path d="M20.38 8.57012L19.15 10.4201C19.7432 11.6032 20.0336 12.915 19.9952 14.2378C19.9568 15.5607 19.5908 16.8534 18.93 18.0001H5.07005C4.21122 16.5102 3.85535 14.7832 4.05519 13.0752C4.25504 11.3671 4.99996 9.76895 6.17953 8.51755C7.3591 7.26615 8.91052 6.42816 10.6038 6.12782C12.2971 5.82747 14.042 6.08076 15.5801 6.85012L17.4301 5.62012C15.5465 4.41234 13.3124 3.87113 11.0849 4.08306C8.8575 4.29499 6.76549 5.24782 5.14354 6.78913C3.52159 8.33045 2.46341 10.3712 2.13827 12.5849C1.81312 14.7987 2.2398 17.0575 3.35005 19.0001C3.52456 19.3024 3.77514 19.5537 4.07688 19.7292C4.37862 19.9046 4.72102 19.998 5.07005 20.0001H18.92C19.2725 20.0015 19.619 19.9098 19.9246 19.7342C20.2301 19.5586 20.4838 19.3053 20.66 19.0001C21.5814 17.404 22.0438 15.5844 21.9962 13.7421C21.9485 11.8998 21.3927 10.1064 20.39 8.56012L20.38 8.57012Z" fill="#323232"/>
<path d="M10.5901 15.4101C10.7758 15.5961 10.9964 15.7436 11.2392 15.8442C11.482 15.9449 11.7422 15.9967 12.0051 15.9967C12.2679 15.9967 12.5281 15.9449 12.7709 15.8442C13.0137 15.7436 13.2343 15.5961 13.4201 15.4101L19.08 6.92012L10.5901 12.5801C10.4041 12.7659 10.2566 12.9864 10.1559 13.2292C10.0553 13.472 10.0035 13.7323 10.0035 13.9951C10.0035 14.258 10.0553 14.5182 10.1559 14.761C10.2566 15.0038 10.4041 15.2244 10.5901 15.4101Z" fill="#323232"/>
</svg>
