<svg width="24" height="24" viewBox="0 0 24 24" fill="none" xmlns="http://www.w3.org/2000/svg">
<path d="M19.5198 2.4902C17.1798 0.150202 12.8998 0.620202 9.96984 3.5502C8.36984 5.1502 7.44984 7.4202 7.42984 9.0102C7.40984 10.5902 7.68984 12.9002 6.07984 14.5102L1.83984 18.7502L3.25984 20.1702L7.49984 15.9302C9.10984 14.3202 11.4198 14.6002 12.9998 14.5802C14.5798 14.5602 16.8598 13.6402 18.4598 12.0402C21.3798 9.1102 21.8598 4.8302 19.5198 2.4902ZM10.3198 11.6802C8.78984 10.1502 9.26984 7.0702 11.3798 4.9602C13.4898 2.8502 16.5598 2.3702 18.0998 3.9002C19.6298 5.4302 19.1498 8.5102 17.0398 10.6202C14.9298 12.7302 11.8598 13.2102 10.3198 11.6802Z" fill="#323232"/>
<path d="M17.9998 17.0002C18.5298 17.0002 19.0398 17.2102 19.4098 17.5902C20.1898 18.3702 20.1898 19.6402 19.4098 20.4202C19.0398 20.7902 18.5298 21.0002 17.9998 21.0002C17.4698 21.0002 16.9598 20.7902 16.5898 20.4102C15.8098 19.6302 15.8098 18.3602 16.5898 17.5802C16.9598 17.2102 17.4698 17.0002 17.9998 17.0002ZM17.9998 15.0002C16.9798 15.0002 15.9498 15.3902 15.1698 16.1702C13.6098 17.7302 13.6098 20.2602 15.1698 21.8302C15.9498 22.6102 16.9798 23.0002 17.9998 23.0002C19.0198 23.0002 20.0498 22.6102 20.8298 21.8302C22.3898 20.2702 22.3898 17.7402 20.8298 16.1702C20.0498 15.3902 19.0198 15.0002 17.9998 15.0002Z" fill="#323232"/>
</svg>
