<svg width="24" height="24" viewBox="0 0 24 24" fill="none" xmlns="http://www.w3.org/2000/svg">
<path d="M14.2698 6.00014C13.7198 6.95014 14.0498 8.18014 14.9998 8.73014C15.9498 9.28014 17.1798 8.95014 17.7298 8.00014C18.2798 7.05014 17.9498 5.82014 16.9998 5.27014C16.0498 4.72014 14.8198 5.05014 14.2698 6.00014Z" fill="#323232"/>
<path d="M15.8398 10.4101C15.8398 10.4101 14.2098 9.47014 13.2398 8.91014C10.8598 7.53014 10.0398 4.47014 11.4198 2.09014L9.68976 1.09014C8.09976 3.83014 8.59977 7.21014 10.6598 9.40014L5.50977 18.3201L7.23977 19.3201L8.73977 16.7201L10.4698 17.7201L7.46977 22.9201L9.19977 23.9201L15.4898 13.0301C16.6298 14.5801 16.8198 16.7201 15.7998 18.4901L17.5298 19.4901C19.1298 16.7401 18.8098 12.9101 15.8398 10.4101Z" fill="#323232"/>
<path d="M12.7498 3.80014C13.4698 4.21014 14.3798 3.97014 14.7998 3.25014C15.2098 2.53014 14.9698 1.62014 14.2498 1.20014C13.5298 0.790143 12.6198 1.03014 12.1998 1.75014C11.7898 2.47014 12.0298 3.39014 12.7498 3.80014Z" fill="#323232"/>
</svg>
