<svg width="24" height="24" viewBox="0 0 24 24" fill="none" xmlns="http://www.w3.org/2000/svg">
<path d="M15.0401 12.79L6.54006 4.29C6.35006 4.1 6.09006 4 5.83006 4C5.57006 4 5.32006 4.1 5.13006 4.29L2.29006 7.13C1.90006 7.52 1.90006 8.16 2.29006 8.55L10.7901 17.05C10.9901 17.25 11.2401 17.34 11.5001 17.34C11.7601 17.34 12.0101 17.24 12.2101 17.05L15.0401 14.22C15.4301 13.82 15.4301 13.18 15.0401 12.79ZM11.5001 14.92L4.41006 7.83L5.83006 6.41L12.9201 13.5L11.5001 14.92Z" fill="#323232"/>
<path d="M15.7555 16.342L14.3413 17.7562L18.5839 21.9988L19.9981 20.5846L15.7555 16.342Z" fill="#323232"/>
<path d="M18.5001 2C16.5701 2 15.0001 3.57 15.0001 5.5C15.0001 7.43 16.5701 9 18.5001 9C20.4301 9 22.0001 7.43 22.0001 5.5C22.0001 3.57 20.4301 2 18.5001 2ZM18.5001 7C17.6701 7 17.0001 6.33 17.0001 5.5C17.0001 4.67 17.6701 4 18.5001 4C19.3301 4 20.0001 4.67 20.0001 5.5C20.0001 6.33 19.3301 7 18.5001 7Z" fill="#323232"/>
</svg>
