<svg width="24" height="24" viewBox="0 0 24 24" fill="none" xmlns="http://www.w3.org/2000/svg">
<g clip-path="url(#clip0_11208_259232)">
<path d="M16.5 4.37988C17.6046 4.37988 18.5 3.48445 18.5 2.37988C18.5 1.27531 17.6046 0.379883 16.5 0.379883C15.3955 0.379883 14.5 1.27531 14.5 2.37988C14.5 3.48445 15.3955 4.37988 16.5 4.37988Z" fill="#323232"/>
<path d="M24 11.8799V7.17988L18.9501 5.03988C17.9801 4.62988 16.86 4.97988 16.3 5.87988L15.3 7.47988C14.63 8.65988 13.39 9.53988 11.89 9.79988L11.95 9.85988C12.64 10.5499 13.47 10.9299 14.41 11.0299C15.21 10.6099 15.93 10.0499 16.5 9.38988L17.1 12.3899L15 14.3799V21.8799H17V15.8799L19.1 13.8799L20.9 21.8799H23L20.82 10.8799L20.2001 7.77988L22 8.47988V11.8799H24Z" fill="#323232"/>
<path d="M10.29 8.08988C10.51 8.23988 10.76 8.32988 11.01 8.37988C11.14 8.39988 11.26 8.41988 11.39 8.41988C11.52 8.41988 11.65 8.40988 11.77 8.37988C11.9 8.35988 12.02 8.31988 12.14 8.26988C12.38 8.16988 12.61 8.02988 12.8 7.82988C13.29 7.33988 13.47 6.65988 13.35 6.02988C13.28 5.65988 13.1 5.28988 12.8 4.99988C12.61 4.80988 12.38 4.65988 12.14 4.55988C12.02 4.50988 11.9 4.46988 11.77 4.44988C11.64 4.42988 11.52 4.40988 11.39 4.40988C11.27 4.40988 11.16 4.41988 11.04 4.43988C10.9 4.45988 10.76 4.49988 10.63 4.54988C10.4 4.65988 10.17 4.80988 9.98005 4.99988C9.68005 5.28988 9.50005 5.65988 9.43005 6.02988C9.31005 6.65988 9.49005 7.33988 9.98005 7.82988C10.07 7.92988 10.18 8.00988 10.29 8.08988Z" fill="#323232"/>
<path d="M11.24 10.5599L9.24005 8.55988C9.14005 8.45988 9.04005 8.37988 8.93005 8.29988C8.71005 8.15988 8.46005 8.05988 8.21005 8.01988C8.08005 7.98988 7.96005 7.97988 7.83005 7.97988C7.32005 7.97988 6.81005 8.17988 6.42005 8.56988L3.08005 11.9099C2.67005 12.3199 2.46005 12.8899 2.50005 13.4499C2.50005 13.6299 2.54005 13.8199 2.61005 13.9999L3.68005 16.9499L0.0500488 20.5799L1.46005 21.9999L5.70005 17.7599V15.5399L7.00005 16.7499V21.8799H9.00005V15.8799L6.88005 13.7599L9.24005 11.3999L9.95005 12.1099C11.24 13.3699 12.92 14.1499 14.98 14.1499L14.84 12.0799C13.34 12.0599 12.14 11.4599 11.24 10.5599Z" fill="#323232"/>
</g>
<defs>
<clipPath id="clip0_11208_259232">
<rect width="24" height="24" fill="white"/>
</clipPath>
</defs>
</svg>
