<svg width="24" height="24" viewBox="0 0 24 24" fill="none" xmlns="http://www.w3.org/2000/svg">
<path d="M2.5301 19.65L3.8701 20.21V11.18L1.4401 17.04C1.0301 18.06 1.5201 19.23 2.5301 19.65ZM22.0301 15.95L17.0701 3.98C16.7601 3.23 16.0301 2.77 15.2601 2.75C15.0001 2.75 14.7301 2.79 14.4701 2.9L7.1001 5.95C6.3501 6.26 5.8901 6.98 5.8701 7.75C5.8601 8.02 5.9101 8.29 6.0201 8.55L10.9801 20.52C11.2901 21.28 12.0301 21.74 12.8101 21.75C13.0701 21.75 13.3301 21.7 13.5801 21.6L20.9401 18.55C21.9601 18.13 22.4501 16.96 22.0301 15.95ZM12.8301 19.75L7.8701 7.79L15.2201 4.75H15.2301L20.1801 16.7L12.8301 19.75Z" fill="#323232"/>
<path d="M11.0001 10C11.5524 10 12.0001 9.55228 12.0001 9C12.0001 8.44772 11.5524 8 11.0001 8C10.4478 8 10.0001 8.44772 10.0001 9C10.0001 9.55228 10.4478 10 11.0001 10Z" fill="#323232"/>
<path d="M5.8801 19.75C5.8801 20.85 6.7801 21.75 7.8801 21.75H9.3301L5.8801 13.41V19.75Z" fill="#323232"/>
</svg>
