<svg width="24" height="24" viewBox="0 0 24 24" fill="none" xmlns="http://www.w3.org/2000/svg">
<path d="M20 4.0002H6.82998L8.82998 6.0002H20V17.1702L21.76 18.9302C21.91 18.6502 22 18.3402 22 18.0002V6.0002C22 4.9002 21.1 4.0002 20 4.0002Z" fill="#323232"/>
<path d="M18 10.0002H12.83L14.83 12.0002H18V10.0002Z" fill="#323232"/>
<path d="M1.03998 3.8702L2.23998 5.0702C2.08998 5.3502 1.99998 5.6602 1.99998 6.0002V18.0002C1.99998 19.1002 2.89998 20.0002 3.99998 20.0002H17.17L20.13 22.9602L21.54 21.5502L2.44998 2.4502L1.03998 3.8702ZM3.99998 6.8302L7.16998 10.0002H5.99998V12.0002H7.99998V10.8302L11.17 14.0002H5.99998V16.0002H13.17L15.17 18.0002H3.99998V6.8302Z" fill="#323232"/>
</svg>
