<svg width="24" height="24" viewBox="0 0 24 24" fill="none" xmlns="http://www.w3.org/2000/svg">
<path d="M15.9106 6.31193C15.9106 6.21101 15.828 6.12844 15.7271 6.12844H6.91972C6.81881 6.12844 6.73624 6.21101 6.73624 6.31193V7.41284C6.73624 7.51376 6.81881 7.59633 6.91972 7.59633H15.7271C15.828 7.59633 15.9106 7.51376 15.9106 7.41284V6.31193ZM15.7271 9.43119H6.91972C6.81881 9.43119 6.73624 9.51376 6.73624 9.61468V10.7156C6.73624 10.8165 6.81881 10.8991 6.91972 10.8991H15.7271C15.828 10.8991 15.9106 10.8165 15.9106 10.7156V9.61468C15.9106 9.51376 15.828 9.43119 15.7271 9.43119ZM11.1399 12.7339H6.91972C6.81881 12.7339 6.73624 12.8165 6.73624 12.9174V14.0183C6.73624 14.1193 6.81881 14.2018 6.91972 14.2018H11.1399C11.2408 14.2018 11.3234 14.1193 11.3234 14.0183V12.9174C11.3234 12.8165 11.2408 12.7339 11.1399 12.7339ZM10.039 19.7982H4.90138V3.65138H17.7454V11.5413C17.7454 11.6422 17.828 11.7248 17.9289 11.7248H19.2133C19.3142 11.7248 19.3968 11.6422 19.3968 11.5413V2.73394C19.3968 2.32798 19.0688 2 18.6628 2H3.98394C3.57798 2 3.25 2.32798 3.25 2.73394V20.7156C3.25 21.1216 3.57798 21.4495 3.98394 21.4495H10.039C10.1399 21.4495 10.2225 21.367 10.2225 21.2661V19.9817C10.2225 19.8807 10.1399 19.7982 10.039 19.7982ZM18.2225 18.0917C18.8876 17.4885 19.305 16.617 19.305 15.6468C19.305 13.8234 17.8257 12.344 16.0023 12.344C14.1789 12.344 12.6995 13.8234 12.6995 15.6468C12.6995 16.617 13.117 17.4885 13.7821 18.0917C12.4748 18.8372 11.5757 20.2179 11.5069 21.8096C11.5023 21.9128 11.5872 22 11.6904 22H12.7936C12.8899 22 12.9702 21.9243 12.9771 21.8257C13.0665 20.2385 14.3899 18.9725 16.0023 18.9725C17.6147 18.9725 18.9381 20.2385 19.0275 21.8257C19.0321 21.922 19.1124 22 19.211 22H20.3142C20.4197 22 20.5023 21.9128 20.4977 21.8096C20.4312 20.2156 19.5298 18.8372 18.2225 18.0917ZM16.0023 13.8119C17.0161 13.8119 17.8372 14.633 17.8372 15.6468C17.8372 16.6606 17.0161 17.4817 16.0023 17.4817C14.9885 17.4817 14.1674 16.6606 14.1674 15.6468C14.1674 14.633 14.9885 13.8119 16.0023 13.8119Z" fill="#323232"/>
</svg>
