<svg width="24" height="24" viewBox="0 0 24 24" fill="none" xmlns="http://www.w3.org/2000/svg">
<path d="M18 11C18 11.07 18 11.13 18 11.2C18 13.54 16.05 16.64 12 20.34C7.95 16.64 6 13.55 6 11.2C6 7.56996 8.65 4.99996 12 4.99996C12.34 4.99996 12.68 5.02996 13 5.07996V3.05996C12.67 3.01996 12.34 2.99996 12 2.99996C7.8 2.99996 4 6.21996 4 11.2C4 14.52 6.67 18.45 12 23C17.33 18.45 20 14.52 20 11.2C20 11.13 20 11.07 20 11H18Z" fill="#323232"/>
<path d="M12 13C13.1046 13 14 12.1045 14 11C14 9.89539 13.1046 8.99996 12 8.99996C10.8954 8.99996 10 9.89539 10 11C10 12.1045 10.8954 13 12 13Z" fill="#323232"/>
<path d="M22.54 2.87996L21.12 1.45996L19 3.58996L16.88 1.45996L15.46 2.87996L17.59 4.99996L15.46 7.11996L16.88 8.53996L19 6.40996L21.12 8.53996L22.54 7.11996L20.41 4.99996L22.54 2.87996Z" fill="#323232"/>
</svg>
